<?xml version="1.0" standalone="no"?><!DOCTYPE svg PUBLIC "-//W3C//DTD SVG 1.1//EN" "http://www.w3.org/Graphics/SVG/1.1/DTD/svg11.dtd"><svg t="1704372812851" class="icon" viewBox="0 0 1152 1024" version="1.1" xmlns="http://www.w3.org/2000/svg" p-id="10574" xmlns:xlink="http://www.w3.org/1999/xlink" width="54" height="48"><path d="M416 0c-59.8 0-109.4 41-123.6 96.4-1.6 0-2.8-0.4-4.4-0.4-70.6 0-128 57.4-128 128 0 9.6 1.2 19 3.4 28C105 276 64 333.2 64 400c0 25.2 6.4 48.6 16.6 69.8C32.6 497.4 0 548.6 0 608c0 66.6 40.8 123.8 98.8 147.8-1.8 9.2-2.8 18.6-2.8 28.2 0 79.6 64.4 144 144 144 8.2 0 16.2-1 24-2.4 19.2 57 72.4 98.4 136 98.4 79.6 0 144-64.4 144-144V128c0-70.6-57.4-128-128-128z m736 608c0-59.4-32.6-110.6-80.6-138.2 10.4-21.2 16.6-44.6 16.6-69.8 0-66.8-41-124-99.4-148 2-9 3.4-18.4 3.4-28 0-70.6-57.4-128-128-128-1.6 0-3 0.4-4.4 0.4C845.4 41 795.8 0 736 0c-70.6 0-128 57.2-128 128v752c0 79.6 64.4 144 144 144 63.6 0 116.8-41.4 136-98.4 7.8 1.4 15.8 2.4 24 2.4 79.6 0 144-64.4 144-144 0-9.6-1-19-2.8-28.2 58-24 98.8-81.2 98.8-147.8z" p-id="10575" fill="#13227a"></path></svg>